<svg xmlns="http://www.w3.org/2000/svg" xmlns:xlink="http://www.w3.org/1999/xlink" width="24" height="24" preserveAspectRatio="xMidYMid meet" viewBox="0 0 24 24" style="-ms-transform: rotate(360deg); -webkit-transform: rotate(360deg); transform: rotate(360deg);"><g fill="none"><path d="M12 5v.01M12 12v.01M12 19v.01M12 6a1 1 0 1 1 0-2a1 1 0 0 1 0 2zm0 7a1 1 0 1 1 0-2a1 1 0 0 1 0 2zm0 7a1 1 0 1 1 0-2a1 1 0 0 1 0 2z" stroke="currentColor" stroke-width="2" stroke-linecap="round" stroke-linejoin="round"/></g><rect x="0" y="0" width="24" height="24" fill="rgba(0, 0, 0, 0)" /></svg>