<svg xmlns="http://www.w3.org/2000/svg" xmlns:xlink="http://www.w3.org/1999/xlink" width="32" height="32" preserveAspectRatio="xMidYMid meet" viewBox="0 0 32 32" style="-ms-transform: rotate(360deg); -webkit-transform: rotate(360deg); transform: rotate(360deg);"><circle cx="16" cy="16" r="4" fill="#626262"/><path d="M30.94 15.66A16.69 16.69 0 0 0 16 5A16.69 16.69 0 0 0 1.06 15.66a1 1 0 0 0 0 .68A16.69 16.69 0 0 0 16 27a16.69 16.69 0 0 0 14.94-10.66a1 1 0 0 0 0-.68zM16 22.5a6.5 6.5 0 1 1 6.5-6.5a6.51 6.51 0 0 1-6.5 6.5z" fill="#626262"/><rect x="0" y="0" width="32" height="32" fill="rgba(0, 0, 0, 0)" /></svg>